<svg xmlns="http://www.w3.org/2000/svg" viewBox="0 0 384 512">
<path d="M318.7 268.7c-.2-37.8 16.9-66.3 51.3-87.2-19.2-27.5-48.2-42.6-86.7-45.6-36.5-2.9-76.3 21.3-90.9 21.3-15.4 0-50.6-20.3-78.4-20.3C56.4 137.4 0 184.4 0 280.7c0 28.5 5.2 57.9 15.7 88.3 14 40.1 64.6 138.4 117.4 136.8 27.6-.7 47.1-19.6 83-19.6 34.8 0 52.8 19.6 83.7 19.6 53.3-.8 99.1-90.1 112.4-130.3-76.4-36-93.5-105.8-93.5-107zM260.5 0c0 29.7-10.8 57.2-32.3 82.4-25.9 29.8-57.2 47-91.2 44.2-4.3-31.1 9.1-64.4 33.9-89.1C195.4 12.3 229.8-1.1 260.5 0z"/>
</svg>