<svg xmlns="http://www.w3.org/2000/svg" viewBox="0 0 512 512">
<path d="M325.3 234.3L104.6 9.6C96.7 1.7 84.1-.9 73.5 3.1l252.4 252.4z" fill="#34A853"/>
<path d="M73.5 3.1C69.1 4.8 65 7.5 61.7 10.8C55.6 16.9 52 25.3 52 34.3v443.4c0 9 3.6 17.4 9.7 23.5c3.3 3.3 7.4 6 11.8 7.7L325.9 256z" fill="#4285F4"/>
<path d="M438.6 225.4L379.2 191L325.3 234.3L379.2 277l59.3-34.4c29.9-17.3 29.9-43.9.1-60.2z" fill="#FBBC04"/>
<path d="M73.5 508.9c10.6 4 23.2 1.4 31.1-6.5l220.7-224.8L73.5 3.1z" fill="#EA4335"/>
</svg>