<svg xmlns="http://www.w3.org/2000/svg" viewBox="0 0 512 512">
<path d="M256 48C141.1 48 48 141.1 48 256s93.1 208 208 208 208-93.1 208-208S370.9 48 256 48zm139.6 128H320c-5.3-28.7-13.8-55.1-25-77.8 44.6 10.7 81.9 38.8 100.6 77.8zM256 90c17.7 24.1 31.7 53.7 40.6 86H215.4c8.9-32.3 22.9-61.9 40.6-86zM96 256c0-11 .9-21.8 2.7-32H192c-1.3 10.5-2 21.2-2 32s.7 21.5 2 32H98.7c-1.8-10.2-2.7-21-2.7-32zm20.4 80H192c5.3 28.7 13.8 55.1 25 77.8-44.6-10.7-81.9-38.8-100.6-77.8zM192 176H116.4c18.7-39 56-67.1 100.6-77.8-11.2 22.7-19.7 49.1-25 77.8zm64 246c-17.7-24.1-31.7-53.7-40.6-86h81.2c-8.9 32.3-22.9 61.9-40.6 86zm49.4-134h-98.8c-1.5-10.4-2.6-21.1-2.6-32s1.1-21.6 2.6-32h98.8c1.5 10.4 2.6 21.1 2.6 32s-1.1 21.6-2.6 32zm-8.4 125.8c11.2-22.7 19.7-49.1 25-77.8h75.6c-18.7 39-56 67.1-100.6 77.8zM320 288c1.3-10.5 2-21.2 2-32s-.7-21.5-2-32h93.3c1.8 10.2 2.7 21 2.7 32s-.9 21.8-2.7 32H320z"/>
</svg>